<?xml version="1.0" encoding="UTF-8" standalone="no"?>
<!-- Created with Inkscape (http://www.inkscape.org/) -->

<svg
   xmlns:dc="http://purl.org/dc/elements/1.1/"
   xmlns:cc="http://creativecommons.org/ns#"
   xmlns:rdf="http://www.w3.org/1999/02/22-rdf-syntax-ns#"
   xmlns:svg="http://www.w3.org/2000/svg"
   xmlns="http://www.w3.org/2000/svg"
   xmlns:sodipodi="http://sodipodi.sourceforge.net/DTD/sodipodi-0.dtd"
   xmlns:inkscape="http://www.inkscape.org/namespaces/inkscape"
   width="1024"
   height="1024"
   viewBox="0 0 270.93333 270.93334"
   version="1.1"
   id="svg8"
   inkscape:version="0.92.2 (5c3e80d, 2017-08-06)"
   sodipodi:docname="lehti1.svg"
   inkscape:export-filename="J:\Harrastukset\Random koodailu\Muumishader\Muumi Shaders\Assets\Models\leaf_tex.png"
   inkscape:export-xdpi="96"
   inkscape:export-ydpi="96">
  <defs
     id="defs2" />
  <sodipodi:namedview
     id="base"
     pagecolor="#ffffff"
     bordercolor="#666666"
     borderopacity="1.0"
     inkscape:pageopacity="1"
     inkscape:pageshadow="2"
     inkscape:zoom="0.49497475"
     inkscape:cx="374.43583"
     inkscape:cy="290.49318"
     inkscape:document-units="mm"
     inkscape:current-layer="layer1"
     showgrid="false"
     inkscape:object-nodes="false"
     inkscape:window-width="1920"
     inkscape:window-height="1018"
     inkscape:window-x="-8"
     inkscape:window-y="-8"
     inkscape:window-maximized="1"
     units="px" />
  <metadata
     id="metadata5">
    <rdf:RDF>
      <cc:Work
         rdf:about="">
        <dc:format>image/svg+xml</dc:format>
        <dc:type
           rdf:resource="http://purl.org/dc/dcmitype/StillImage" />
        <dc:title></dc:title>
      </cc:Work>
    </rdf:RDF>
  </metadata>
  <g
     inkscape:label="Layer 1"
     inkscape:groupmode="layer"
     id="layer1"
     transform="translate(0,-26.06665)">
    <path
       id="path1469-4"
       style="fill:#000000;stroke-width:0.99999994"
       d="m 83.104593,228.64723 c -0.08446,-1.9409 -1.268042,-2.34582 -1.549881,-0.53026 -0.282173,1.81757 0.06348,2.6656 0.932501,2.28799 0.374507,-0.16277 0.6523,-0.9537 0.617292,-1.75769 z m 12.547408,-3.89787 -0.658107,-1.51459 -1.821454,0.50197 -1.821581,0.50165 0.630471,1.45096 c 0.795224,1.83013 1.862429,2.26244 3.246677,1.31512 l 1.082125,-0.74051 z m 1.775619,-13.95865 0.44841,-1.54302 -1.048168,-1.06739 -1.048155,-1.06738 -0.347908,0.9826 c -0.191362,0.5404 -0.245721,1.856 -0.120786,2.92346 l 0.227151,1.94091 0.720511,-0.31297 c 0.396296,-0.17219 0.92232,-1.00743 1.168948,-1.85608 z m -1.839695,-76.94503 c -0.812151,-0.82704 -2.496535,-0.84442 -2.139219,-0.022 0.492246,1.13283 2.184646,2.20739 2.580194,1.63821 0.261181,-0.37594 0.06275,-1.10317 -0.440862,-1.61621 z M 80.829693,122.41392 c 0.08374,-0.57839 -0.350055,-1.24951 -0.963928,-1.49144 l -1.11595,-0.4399 -0.161763,1.98055 -0.161762,1.98058 1.125594,-0.4891 c 0.619067,-0.26897 1.194058,-0.96231 1.277721,-1.54066 z m 22.029277,15.4327 c -0.18222,-0.4194 -0.65418,-0.62223 -1.04883,-0.45075 -0.39462,0.17156 -0.78048,0.74703 -0.85745,1.27903 l -0.13992,0.96732 1.18877,-0.51655 c 0.65382,-0.28407 1.03966,-0.8597 0.85743,-1.27905 z m -0.46251,-20.50128 c -0.45556,-1.04847 -1.11648,-1.78105 -1.46839,-1.62811 -0.35209,0.15301 -0.65826,1.30577 -0.6804,2.56179 l -0.0403,2.28369 1.50869,-0.65557 1.50866,-0.65553 z m 31.00383,111.77225 c -1.1119,-0.43834 -1.24436,1.00649 -0.16128,1.75915 l 1.01708,0.70684 -0.0975,-1.10276 c -0.0535,-0.60655 -0.39479,-1.22001 -0.7582,-1.3633 z m -5.51723,-3.06045 c -0.68912,-1.57016 -1.79303,-3.22059 -2.45167,-3.66826 l -1.19749,-0.814 0.067,1.53866 c 0.0857,1.96871 3.15071,6.5304 4.10837,6.11428 0.40039,-0.17408 0.1636,-1.60075 -0.52616,-3.17068 z m 7.77265,-2.5275 c -0.0505,-0.57017 -0.63495,-0.80055 -1.29894,-0.51203 -0.664,0.28845 -0.97125,1.06788 -0.68272,1.73191 0.58511,1.34653 2.12471,0.39877 1.98166,-1.21988 z m -10.29464,-7.4809 -0.66266,-1.52503 -1.14374,0.49698 c -0.62907,0.27338 -1.08142,0.6405 -1.00522,0.81587 0.0763,0.17566 0.16604,0.95221 0.1998,1.72614 l 0.0612,1.40721 1.60662,-0.69808 1.60658,-0.6981 z m -11.90657,-17.3747 c -1.11191,-0.43833 -1.24437,1.00649 -0.16129,1.75915 l 1.01708,0.70684 -0.0975,-1.10275 c -0.0535,-0.60656 -0.39479,-1.22001 -0.75819,-1.36329 z m -5.51724,-3.06044 c -0.68911,-1.57018 -1.79303,-3.22059 -2.45166,-3.66827 l -1.1975,-0.814 0.067,1.53865 c 0.0857,1.96872 3.1507,6.53042 4.10837,6.11429 0.40038,-0.17408 0.16359,-1.60075 -0.52617,-3.17067 z m 7.77266,-2.52751 c -0.0505,-0.57016 -0.63496,-0.80055 -1.29894,-0.51203 -0.664,0.28845 -0.97124,1.06789 -0.68273,1.73191 0.58512,1.34653 2.12471,0.39877 1.98167,-1.21988 z m -10.29465,-7.48091 -0.66264,-1.52502 -1.14376,0.49698 c -0.62906,0.27337 -1.08141,0.64052 -1.00522,0.81588 0.0763,0.17565 0.16604,0.95219 0.19982,1.72612 l 0.0612,1.40721 1.6066,-0.69807 1.60659,-0.69811 z m -31.104516,135.53834 -0.574793,-1.48762 0.835356,0.82674 c 0.45936,0.45477 0.718033,1.1242 0.574806,1.48767 -0.143255,0.36339 -0.519238,-0.009 -0.835338,-0.82682 z m -1.686942,-11.50151 -0.312433,-2.01102 0.768003,0.85531 c 0.42232,0.47045 0.563029,1.37538 0.312433,2.01102 l -0.45559,1.15568 z m 5.948676,-3.59176 c -0.313909,-0.70667 -0.320957,-1.64547 -0.01415,-2.08689 0.705878,-1.01575 1.144489,-0.007 0.828299,1.90627 l -0.242172,1.46495 -0.571795,-1.2844 z m -6.413022,-0.28847 -0.574793,-1.48761 0.835327,0.82674 c 0.459358,0.45481 0.718029,1.12423 0.574806,1.48767 -0.143254,0.3634 -0.519143,-0.009 -0.835368,-0.8268 z m 6.433925,-3.93712 c -0.670981,-1.36288 -1.515993,-14.13727 -0.919637,-13.90216 0.518797,0.20455 1.40175,7.8424 1.408803,12.1872 0.0025,1.49463 -0.217662,2.26636 -0.489166,1.71496 z m 37.165429,-18.97052 c -1.55308,0.26111 -3.33042,0.27493 -3.9496,0.0315 -0.61917,-0.24415 -1.5068,-0.0698 -1.9725,0.38772 -0.72099,0.70794 -4.0962,0.76165 -10.284184,0.16341 -0.780615,-0.0755 -3.493569,-0.21713 -6.028747,-0.31451 -8.269978,-0.31818 -19.329863,-5.34905 -17.511545,-7.96559 0.306808,-0.44129 0.186366,-1.65721 -0.267498,-2.70172 -0.453864,-1.04455 -0.7464,-3.06764 -0.650049,-4.49584 0.0963,-1.42822 -0.313563,-3.63935 -0.910877,-4.91361 -0.597218,-1.2743 -0.975383,-3.93263 -0.840185,-5.90744 0.13521,-1.97482 -0.03972,-3.90359 -0.388766,-4.28619 -0.349172,-0.38253 -0.619511,-3.03011 -0.601032,-5.88341 0.01854,-2.85327 -0.331212,-6.02753 -0.77719,-7.05391 -0.445974,-1.02635 -0.614038,-3.28719 -0.373514,-5.02408 0.24057,-1.73691 0.142721,-3.84582 -0.21741,-4.68645 -0.35869,-0.84124 -0.420311,-2.85403 -0.133734,-4.47422 0.28654,-1.62024 0.168109,-3.76411 -0.263194,-4.76429 -0.431183,-1.00021 -0.568778,-3.30735 -0.305518,-5.12715 0.263256,-1.8198 0.185423,-3.42431 -0.17298,-3.56558 -0.845318,-0.33325 -0.05622,-9.31144 0.853102,-9.70655 0.380993,-0.16559 0.176531,-0.89279 -0.454221,-1.6162 l -1.147057,-1.31513 0.683314,-3.22386 c 0.375845,-1.7731 0.57105,-3.59125 0.433797,-4.04039 -0.137253,-0.44911 -0.373158,-1.24356 -0.523951,-1.76565 -0.150796,-0.52207 0.01097,-1.67269 0.359483,-2.55704 0.751726,-1.90697 0.504339,-8.43172 -0.435271,-11.48071 -0.365953,-1.18755 -0.384137,-3.48619 -0.04037,-5.10799 0.343766,-1.62183 0.311112,-3.67122 -0.07255,-4.5542 -0.383664,-0.88296 -0.293358,-2.43626 0.200694,-3.45176 l 0.898299,-1.84642 -0.966783,-1.23115 c -0.531663,-0.67716 -0.758308,-2.25373 -0.503528,-3.5036 0.254837,-1.24982 0.216532,-2.84029 -0.08507,-3.53441 -0.301592,-0.69408 -0.219265,-1.91276 0.182941,-2.70818 0.402209,-0.79544 0.416356,-2.17723 0.03143,-3.0707 -0.384826,-0.89352 -0.473427,-2.92117 -0.19661,-4.50603 0.2768,-1.58486 0.223319,-3.07611 -0.11887,-3.31391 -0.342123,-0.23787 -0.350912,-2.18891 -0.01948,-4.33584 0.331516,-2.14694 0.424305,-4.34398 0.206256,-4.88234 -0.217003,-0.53883 -0.182123,-1.86378 0.07988,-2.9454 0.262032,-1.08162 0.178982,-2.67718 -0.184575,-3.5457 -0.363656,-0.86844 -0.226743,-3.37013 0.303885,-5.55914 0.530683,-2.18898 0.711467,-4.56309 0.401788,-5.27582 -0.309666,-0.71267 -0.245188,-1.92444 0.143317,-2.69273 0.388478,-0.7683 0.561304,-2.83093 0.384041,-4.58361 -0.177316,-1.7527 -0.162327,-3.64378 0.03331,-4.20241 0.195603,-0.55859 0.03111,-1.762852 -0.365838,-2.676076 -0.396814,-0.913235 -0.392395,-2.311177 0.0097,-3.106634 0.402209,-0.795424 0.483017,-2.017656 0.179547,-2.716054 -0.303477,-0.698423 -0.0525,-2.899054 0.557648,-4.890287 0.610184,-1.991295 0.876787,-4.194094 0.592428,-4.895094 -0.284089,-0.701158 -0.23925,-3.921193 0.100208,-7.155838 0.339449,-3.234614 0.502522,-6.145076 0.362369,-6.467594 -0.140144,-0.322551 0.04711,-1.736994 0.416101,-3.143237 0.368982,-1.406244 0.893575,-6.278243 1.16577,-10.826656 0.53868,-9.002055 1.750299,-14.640917 3.038191,-14.139512 0.450174,0.175337 0.483778,1.342016 0.07476,2.59275 l -0.743722,2.274128 0.873408,-0.76243 c 0.480352,-0.419426 1.020546,-1.992585 1.200329,-3.49608 l 0.326925,-2.733617 -1.107041,0.0729 c -0.608836,0.04021 -1.04941,-0.325127 -0.979035,-0.81167 0.07051,-0.486605 -0.407055,-0.65217 -1.060761,-0.368112 -0.653823,0.284058 -0.988232,0.978052 -0.743144,1.542081 0.245095,0.564095 -7.35e-4,1.996638 -0.546265,3.183428 -0.54556,1.186821 -1.874279,5.730897 -2.952733,10.098003 l -1.960815,7.940139 -1.173832,0.05122 c -0.645647,0.02828 -1.148819,0.626279 -1.118208,1.329385 l 0.05564,1.278323 1.119832,-0.486606 c 1.708291,-0.742259 1.785105,0.367044 0.34919,5.041459 -0.72271,2.35259 -1.106175,4.755801 -0.852145,5.340444 0.254049,0.584645 0.05107,2.864585 -0.451061,5.066599 -0.502113,2.201983 -0.732753,5.092396 -0.512548,6.423037 0.220176,1.330673 -0.225927,3.778974 -0.991387,5.440649 l -1.391716,3.021225 1.746892,1.201908 1.746933,1.201937 -1.280183,3.527537 c -1.499156,4.130995 -1.789515,7.028315 -0.907706,9.057735 0.348187,0.8013 0.216688,2.37618 -0.292228,3.49972 -0.508928,1.12351 -0.592445,2.80891 -0.18558,3.74529 0.406878,0.93638 0.304797,3.9326 -0.22687,6.65823 -0.531662,2.72567 -0.73869,5.04561 -0.46006,5.15543 0.278654,0.10996 0.377815,2.73959 0.220427,5.84389 -0.157393,3.10431 0.02042,6.3497 0.395052,7.212 0.37467,0.86226 0.338098,1.71684 -0.0813,1.89906 -0.419378,0.18225 -0.561256,0.79456 -0.31525,1.36072 0.246005,0.56617 0.05876,2.79152 -0.416096,4.94531 -0.474891,2.15377 -0.491064,5.38012 -0.03595,7.16969 0.455178,1.7895 0.527112,3.52341 0.160033,3.85301 -0.367178,0.32949 -0.508385,0.96542 -0.313939,1.41291 0.321903,0.7408 0.312588,8.59409 -0.01508,12.78312 -0.07384,0.94364 0.151927,2.69611 0.501715,3.89426 0.626179,2.14522 0.644814,18.6072 0.02922,25.93084 -0.173294,2.06216 -0.15928,4.10799 0.03111,4.54634 0.190451,0.43831 0.375378,4.23918 0.410931,8.44637 0.03553,4.2072 0.261811,8.37959 0.502811,9.27201 0.241104,0.89234 0.770523,8.20871 1.176713,16.25848 0.406231,8.04977 1.110226,19.49331 1.564489,25.43012 0.454263,5.9368 0.615614,11.32775 0.358563,11.97983 l -0.467375,1.18562 -12.350142,5.81762 -12.350171,5.81763 -4.226038,0.74486 -4.226054,0.7448 -3.220747,-1.03118 c -1.771412,-0.56718 -5.279994,-2.73415 -7.796873,-4.81547 l -4.576126,-3.78425 -2.774007,-6.79018 -2.773996,-6.79017 -0.899625,-6.23661 c -0.49481,-3.43016 -1.327276,-8.4983 -1.84994,-11.26258 -1.5004564,-7.93586 -0.793727,-27.13614 1.513498,-41.11832 0.233531,-1.41526 1.611649,-7.52092 3.062489,-13.56812 3.773696,-15.72907 4.723416,-19.44432 5.731233,-22.42014 0.491355,-1.45083 0.779136,-2.90075 0.639536,-3.22205 -0.139609,-0.32129 2.049883,-6.6565 4.865542,-14.07823 2.815656,-7.42177 5.424197,-14.64635 5.796724,-16.05465 1.111225,-4.20059 4.052038,-13.49783 6.317672,-19.97313 1.167531,-3.33679 2.025062,-6.29187 1.905597,-6.56679 -0.119468,-0.27495 1.319871,-4.64092 3.19846,-9.70224 l 3.415651,-9.202396 1.688516,-0.173764 1.688478,-0.173765 -0.89053,-0.618864 -0.890534,-0.618866 2.103768,-7.030593 c 1.157074,-3.86683 2.695963,-7.892281 3.419741,-8.945464 0.723779,-1.053181 1.126847,-2.350074 0.895719,-2.881992 -0.231143,-0.531949 -0.08329,-1.113607 0.32853,-1.292558 0.411827,-0.178793 1.717516,-2.989802 2.901516,-6.246348 2.421244,-6.659585 3.015921,-7.292902 4.228131,-4.503134 l 0.847859,1.951294 0.610266,-0.878159 c 0.335668,-0.482993 0.09239,-1.637165 -0.540629,-2.564847 l -1.150924,-1.686624 2.516647,-6.593378 c 2.249781,-5.894137 4.880392,-9.256859 3.087082,-3.946204 -0.397047,1.175762 -0.396739,2.265895 6.38e-4,2.422535 0.932391,0.367579 3.452356,-5.815549 2.909947,-7.14 l -0.413531,-1.006897 -0.743964,0.895537 c -0.409141,0.492639 -0.190389,-0.292227 0.486087,-1.744002 4.174333,-8.958159 6.522526,-13.550845 7.044329,-13.777589 0.327935,-0.142343 0.818218,-1.069364 1.089541,-2.059733 l 0.49333,-1.800688 0.614648,2.452356 c 0.33803,1.34877 3.089409,8.719474 6.114134,16.379293 3.02477,7.659789 7.103271,19.55273 9.063481,26.428689 4.078959,14.308029 8.035746,25.347383 13.584656,40.142651 9.93927,26.50143 24.22078,64.02041 33.52227,124.57329 l -0.0117,9.51692 -0.0706,6.70053 c -0.0388,3.68527 -0.43003,7.49845 -0.86934,8.47374 -0.4393,0.97532 -0.6424,2.47339 -0.45137,3.32905 0.19091,0.85572 -0.68345,3.24529 -1.94331,5.31027 l -2.2906,3.7545 -8.83492,4.00887 c -4.85917,2.20489 -10.1056,4.22249 -11.6588,4.48336 z m 7.84264,-7.51969 c -2.27553,-1.49366 -3.42378,-0.758 -2.42059,1.55072 l 0.64309,1.48003 1.92386,-0.83595 1.92385,-0.83594 z m -11.79515,2.4254 -0.45827,-2.03961 -0.63576,0.84317 c -1.44826,1.92076 -1.84971,3.15308 -1.17906,3.61913 1.4072,0.97792 2.72226,-0.42366 2.27309,-2.42269 z m 5.76089,-5.0188 -0.33132,-0.7625 -0.73129,1.44619 c -0.40221,0.79541 -0.58222,1.78937 -0.39999,2.20873 l 0.33133,0.76253 0.73131,-1.44621 c 0.40222,-0.79546 0.58219,-1.78938 0.39996,-2.20874 z m 14.23247,-6.80917 c 0.17996,-2.20329 -0.0238,-2.76862 -0.86646,-2.40251 -0.35209,0.15303 -0.65823,1.30581 -0.68037,2.56184 l -0.0403,2.28368 0.71932,-0.31266 c 0.39564,-0.17188 0.78617,-1.13064 0.86782,-2.13047 z m -8.11704,2.10772 c -0.27334,-0.6291 -0.84011,-0.9947 -1.25949,-0.81245 -0.41938,0.18225 -0.53886,0.84599 -0.26552,1.47508 0.27335,0.62909 0.8401,0.99465 1.25949,0.81244 0.41938,-0.18225 0.53886,-0.84598 0.26551,-1.47507 z m -24.630662,10.07219 c -0.217819,-0.50129 0.105956,-2.26939 0.719453,-3.92909 0.613559,-1.65969 0.741539,-3.16507 0.284469,-3.34522 -0.457073,-0.18006 -1.345249,1.22771 -1.973721,3.12863 -1.13762,3.4408 -0.848918,6.01941 0.603286,5.38843 0.419378,-0.18226 0.584308,-0.74151 0.366504,-1.24275 z m 13.744032,-9.7254 -0.3064,-1.38083 -1.43859,0.0625 c -1.93365,0.0842 -2.16429,0.97127 -0.68987,2.66226 1.38113,1.58356 2.89858,0.74594 2.43485,-1.34406 z m 9.9983,-8.06923 -0.33522,-2.97714 -1.82539,-0.61641 c -2.60622,-0.88007 -2.86094,-0.55624 -2.11893,2.69374 l 0.66103,2.89538 1.43564,0.72595 c 2.1389,1.08156 2.55297,0.56535 2.18287,-2.72152 z m -35.889984,16.95816 c -0.171473,-0.39464 -0.747047,-0.7805 -1.27904,-0.85745 l -0.96727,-0.13983 0.516527,1.18873 c 0.284088,0.65384 0.859661,1.03967 1.279038,0.85746 0.419379,-0.18225 0.622213,-0.65419 0.450745,-1.04882 z m 47.637334,-20.75266 c -0.44131,-0.30668 -1.29702,-0.34288 -1.90133,-0.0804 -0.60432,0.26268 -0.94967,0.82057 -0.76745,1.23993 0.18223,0.41939 1.03783,0.45553 1.90134,0.0804 l 1.57002,-0.68221 z M 91.891048,274.1486 c -0.182218,-0.41938 -0.674484,-0.61342 -1.093861,-0.43121 -0.419379,0.18225 -0.613396,0.6745 -0.431169,1.09384 0.182218,0.4194 0.674443,0.61344 1.093821,0.43119 0.419378,-0.18225 0.613436,-0.67445 0.431209,-1.09382 z m -2.438697,-3.52621 c -0.171471,-0.39466 -0.654894,-0.56842 -1.074272,-0.3862 -0.419378,0.18224 -0.530057,0.86624 -0.245974,1.52008 l 0.516539,1.18877 0.557733,-0.80256 c 0.306808,-0.44133 0.417431,-1.12549 0.245974,-1.52009 z m 26.051809,-11.79386 c -0.1103,-2.53449 -0.8739,-3.20882 -1.36023,-1.20112 -0.262,1.08162 -0.35578,2.24412 -0.20839,2.58336 0.47425,1.09142 1.63187,0.0714 1.56861,-1.38224 z m 23.36518,-10.07856 -0.49699,-1.14377 -1.52503,0.66267 c -1.51908,0.66006 -1.63032,1.67431 -0.24355,2.22093 1.33221,0.52516 2.76999,-0.57899 2.26559,-1.73983 z m -58.594676,21.61246 -0.828309,-1.90626 -0.731288,1.44624 c -0.402237,0.79542 -0.358582,2.30405 0.09699,3.35252 l 0.828299,1.90624 0.731326,-1.44622 c 0.402209,-0.79543 0.358542,-2.30405 -0.09703,-3.35252 z m 17.733172,-4.35736 c 0.507137,-1.28646 -1.522414,-4.73066 -2.529676,-4.29298 -1.009452,0.43863 -1.065836,4.08541 -0.07871,5.09064 1.052252,1.07156 1.983887,0.78666 2.608411,-0.79762 z M 132.56648,247.2396 c -0.3824,-0.4259 -1.16203,-0.73309 -1.73252,-0.68267 l -1.03722,0.0917 0.98803,1.00611 c 1.13411,1.15494 2.83552,0.75851 1.78171,-0.41512 z m -29.0462,11.94927 c -0.40334,-0.92826 -3.790187,-2.25493 -4.053201,-1.5877 -0.404188,1.02528 2.201631,3.23395 3.268491,2.77038 0.6008,-0.26111 0.95393,-0.79326 0.78471,-1.18268 z M 33.85379,288.7155 c -0.139546,-0.31329 -1.281949,-0.59434 -2.537749,-0.62497 -2.429244,-0.0591 -2.671987,0.68328 -0.502954,1.53831 1.454143,0.57318 3.438655,-0.022 3.040703,-0.91334 z m 16.331552,-8.32639 c -0.162737,-0.37449 -0.555264,-0.57377 -0.872262,-0.44287 -0.317039,0.13103 -1.438348,0.36667 -2.491834,0.52381 l -1.915452,0.28563 0.51133,1.17677 c 0.530965,1.22198 2.837536,1.15351 4.250909,-0.12632 0.44724,-0.40504 0.680039,-1.04265 0.517309,-1.41718 z m 71.551728,-31.43028 c -0.43835,-1.00881 -5.46886,-0.31867 -5.91113,0.81095 -0.13949,0.35631 0.81308,0.9445 2.11679,1.30724 2.47298,0.68799 4.51769,-0.45347 3.79434,-2.11819 z m -58.980147,19.4797 -1.462028,-2.10393 0.382234,-1.31537 0.382246,-1.31531 -1.021659,-0.14768 c -0.561943,-0.0813 -1.308674,0.57889 -1.658827,1.46852 l -0.637158,1.61634 1.970299,1.60083 c 1.083693,0.88052 1.99713,2.21726 2.029938,2.97061 l 0.05961,1.36973 0.708712,-1.01981 0.708699,-1.01985 z M 38.58284,281.22187 c -3.416221,-2.92161 -4.552274,-3.68741 -5.110504,-3.44483 -0.877921,0.38147 -0.64314,4.74012 0.290279,5.38877 0.875203,0.60818 5.583967,-1.29076 4.820181,-1.94405 z m 90.86521,-39.55097 c -0.15049,-0.3463 -1.48158,-1.06273 -2.95801,-1.59214 l -2.68443,-0.96256 0.44582,1.02604 c 0.5078,1.16866 3.85527,2.85996 4.82584,2.43822 0.3544,-0.15398 0.52125,-0.56326 0.37078,-0.90956 z m -75.258401,31.24438 c -0.261057,-0.60079 -1.304307,-1.00699 -2.31832,-0.90261 l -1.843659,0.1898 -0.189853,1.31238 -0.189853,1.31238 1.53174,-0.0494 c 2.508013,-0.0804 3.513836,-0.70304 3.009945,-1.86272 z m 55.150701,-27.31174 c -2.16375,-1.71246 -2.82483,-0.77621 -1.47927,2.09504 l 1.22698,2.61798 0.81907,-1.80818 0.81904,-1.80814 -1.38573,-1.09673 z M 46.251484,275.508 c -0.251032,-0.57773 -1.239997,-1.26977 -2.197697,-1.5379 l -1.741236,-0.48745 1.130936,1.16906 c 0.622018,0.64297 1.267828,1.4841 1.435152,1.86919 0.167325,0.38508 0.647344,0.55103 1.066722,0.3688 0.419378,-0.18224 0.55715,-0.804 0.306116,-1.3817 z m 35.28999,-16.83326 c -0.370175,-0.85192 -1.313956,-1.52106 -2.097284,-1.48696 l -1.424264,0.0619 -0.208926,1.35593 -0.208896,1.35593 1.689437,0.39903 c 2.396574,0.56602 3.024103,0.0959 2.249914,-1.68592 z m 17.435907,-9.11517 c -1.111901,-0.43834 -1.244368,1.00649 -0.16129,1.75914 l 1.017079,0.70685 -0.09747,-1.10276 c -0.05355,-0.60654 -0.394786,-1.22 -0.758196,-1.36329 z m -73.374103,32.66891 c -0.156955,-0.3612 0.643715,-0.86549 1.779238,-1.12068 l 2.064627,-0.46389 -0.391726,-0.9015 c -0.215432,-0.49584 -1.042418,-1.41652 -1.837729,-2.04594 l -1.445971,-1.1444 -0.90471,3.03613 c -0.981863,3.29509 -0.921436,4.14136 0.259139,3.62838 0.419378,-0.18225 0.634083,-0.62687 0.477126,-0.9881 z m 13.534005,-8.90716 -1.312598,-0.51743 0.795178,1.83001 0.795176,1.83003 0.517422,-1.31261 0.517425,-1.3126 z M 84.083404,250.7342 c -0.988367,-1.00655 -2.640492,-0.63101 -2.153633,0.48944 0.170373,0.39208 1.133878,1.50311 2.141081,2.46898 l 1.831352,1.75606 -0.464152,-1.90385 c -0.255243,-1.04709 -0.864792,-2.31193 -1.354559,-2.81066 z m -31.564782,16.24923 c -0.784232,-1.80482 -4.328761,-3.9264 -4.984181,-2.98325 -0.862408,1.24095 0.741256,3.89202 2.633745,4.35393 2.424307,0.59175 3.045683,0.22938 2.350436,-1.37068 z m 40.941528,-20.4843 c -0.689115,-1.57017 -1.793027,-3.22059 -2.45167,-3.66828 l -1.197493,-0.81398 0.06696,1.53865 c 0.08569,1.9687 3.150709,6.53041 4.108375,6.11428 0.400386,-0.17408 0.163584,-1.60075 -0.526164,-3.17067 z m -15.553454,7.21149 c -0.392709,-2.63282 -0.981879,-3.87915 -1.6885,-3.5721 -0.770396,0.33475 -0.530239,5.40603 0.270954,5.72185 1.207457,0.47595 1.698221,-0.26835 1.417597,-2.14975 z m 23.326104,-9.73901 c -0.0504,-0.57015 -0.63495,-0.80055 -1.298946,-0.51203 -0.663994,0.28846 -0.971235,1.06789 -0.682706,1.73191 0.585098,1.34654 2.124692,0.39878 1.981652,-1.21988 z m 10.89502,-5.42292 c -0.0694,-1.5935 -2.5289,-3.82111 -3.67099,-3.32486 -1.24519,0.54105 -0.75945,2.77299 0.88707,4.0761 1.83071,1.44885 2.86751,1.16907 2.78392,-0.75124 z m 13.98948,-5.49715 c 0.0716,-0.49518 -0.26648,-0.95785 -0.75156,-1.02793 -0.48497,-0.07 -0.85561,0.47081 -0.82385,1.20182 0.0628,1.44135 1.36235,1.29796 1.57528,-0.17376 z m -86.687747,32.61905 c -1.709391,-2.94362 -1.957095,-2.98448 -2.171616,-0.35819 l -0.1584,1.93973 1.38459,0.70015 c 2.228462,1.12686 2.518436,0.427 0.945442,-2.28169 z m 22.898826,-8.09226 0.93597,-1.66406 -0.914745,-1.41609 -0.914743,-1.41607 -1.429151,2.71385 -1.429193,2.71379 0.891507,0.61955 c 1.148075,0.79788 1.710637,0.49283 2.86016,-1.55079 z m -8.886207,-0.0606 c -0.91287,-0.35984 -1.641006,1.55476 -1.06802,2.80838 l 0.583321,1.27935 0.473188,-1.95236 c 0.26024,-1.07383 0.264922,-2.0345 0.01041,-2.13483 z m 68.762978,-28.34327 -0.69026,-1.58853 -0.81524,0.73151 c -0.44832,0.40243 -0.67764,1.35176 -0.5094,2.10983 l 0.30596,1.37827 1.19969,-0.52129 1.19965,-0.52128 z m -18.17277,6.15896 c -0.18222,-0.41936 -0.84601,-0.53887 -1.47508,-0.26551 -0.62906,0.27336 -0.99469,0.84011 -0.81246,1.25948 0.18226,0.41941 0.84605,0.53887 1.47512,0.26553 0.62906,-0.27337 0.99465,-0.84008 0.81242,-1.2595 z m -77.220894,31.28371 c -0.934859,-0.8423 -1.782947,-1.3204 -1.884659,-1.06234 -0.304544,0.77254 2.139415,3.22162 2.889611,2.89567 l 0.694774,-0.30195 z M 56.85664,254.01904 c -0.364452,-0.83876 -1.005772,-1.37595 -1.42515,-1.1937 -0.419378,0.18225 -0.464331,1.01757 -0.09989,1.85634 0.364455,0.83875 1.005791,1.37591 1.42517,1.19366 0.419377,-0.18225 0.464315,-1.01755 0.09986,-1.8563 z m 40.998402,-20.00202 c 0.382337,-3.08909 -0.06208,-4.13084 -1.496671,-3.50751 -0.628087,0.27306 -0.803,6.17696 -0.222595,7.51276 0.527245,1.21339 1.294838,-0.57292 1.719055,-4.00515 z m -48.918285,20.55065 c -0.147402,-0.33924 -0.611129,-0.4677 -1.030508,-0.28532 -0.419377,0.18225 -0.625619,0.64642 -0.458295,1.0315 0.167324,0.38508 0.377618,1.41545 0.467634,2.28959 l 0.163428,1.58947 0.562886,-2.00416 c 0.309573,-1.10229 0.44227,-2.28171 0.294867,-2.62093 z m 42.001399,-18.07695 -0.66265,-1.52502 -1.14375,0.49697 c -0.629069,0.27337 -1.081418,0.64051 -1.005219,0.81588 0.07626,0.17564 0.166036,0.95219 0.199814,1.72612 l 0.06124,1.40722 1.606617,-0.69808 1.606589,-0.69811 z m -71.490703,31.57067 c -0.08038,-0.18509 -0.581389,-0.39926 -1.113381,-0.47622 -0.531955,-0.077 -0.809363,0.22342 -0.61643,0.66756 0.192996,0.44413 0.694031,0.6584 1.113408,0.47618 0.419379,-0.18224 0.69676,-0.48261 0.616403,-0.66752 z m 10.036338,-5.71755 -0.101272,-1.14573 -0.855828,0.76843 c -0.470682,0.42276 -0.810291,1.28405 -0.754576,1.9142 l 0.101239,1.14577 0.855847,-0.76849 c 0.47065,-0.42272 0.810261,-1.28401 0.754575,-1.91418 z m 10.814991,-5.05635 c 0.468117,-0.83552 0.537615,-2.89231 0.15441,-4.5707 l -0.69667,-3.05157 -0.654262,0.29096 c -0.739935,0.32837 -1.661065,7.36178 -1.125967,8.59326 0.457958,1.05396 1.272588,0.61113 2.322272,-1.26258 z m 74.812878,-32.79012 c -0.0845,-1.94088 -1.26803,-2.34582 -1.54987,-0.53025 -0.28219,1.81757 0.0634,2.6656 0.93249,2.28799 0.37451,-0.16277 0.6523,-0.9537 0.61729,-1.7577 z m -33.555088,13.35031 c -0.182218,-0.41938 -0.694713,-0.60466 -1.138848,-0.41166 -0.444134,0.19294 -0.446357,0.60189 -0.0049,0.90865 0.441311,0.30667 0.9539,0.49197 1.138833,0.41162 0.185015,-0.0804 0.187183,-0.48925 0.0049,-0.90861 z m -60.093735,21.73967 c -0.555433,-0.59467 -1.532938,-1.36835 -2.172244,-1.71931 l -1.16234,-0.6381 -0.388603,1.72594 -0.388612,1.72587 1.920177,1.26042 1.920206,1.26041 0.640638,-1.26701 0.640681,-1.26695 z m 6.843861,-2.31821 c -1.787397,-1.41461 -3.06006,-0.89551 -2.268918,0.92522 0.779335,1.79356 1.689103,2.1354 2.794444,1.04998 l 0.879294,-0.86346 z m 76.385852,-32.75366 c 0.38653,-1.47296 0.4056,-2.88456 0.0424,-3.13696 l -0.66029,-0.45886 -2.10059,1.89964 c -1.15531,1.04479 -2.131216,1.95438 -2.168688,2.02127 -0.03739,0.067 0.559318,0.76684 1.326428,1.55528 1.81679,1.86772 2.6996,1.40149 3.56078,-1.88025 z m -42.430186,18.99643 c -0.182219,-0.41941 -1.017605,-0.46434 -1.856361,-0.0999 -0.838757,0.36446 -1.375925,1.00583 -1.193697,1.42519 0.182218,0.41939 1.01759,0.4643 1.856347,0.0999 0.838755,-0.36448 1.375938,-1.0058 1.193711,-1.42516 z m -13.259932,0.77603 -1.159628,-2.66879 -1.050403,0.45644 c -0.577713,0.25107 -1.229249,1.07182 -1.447819,1.82397 l -0.397439,1.36757 1.888174,1.15735 c 2.728544,1.67241 3.494184,0.91758 2.167115,-2.13654 z m 8.226607,-2.79787 c -0.08446,-1.94089 -1.268042,-2.34583 -1.549881,-0.53025 -0.282173,1.81756 0.06348,2.66559 0.932501,2.28798 0.374507,-0.16276 0.6523,-0.9537 0.617291,-1.7577 z m 60.159411,-26.30643 c 0.1782,-1.23169 -2.11544,-3.81447 -2.67386,-3.01094 -0.66163,0.9521 0.9305,4.51759 1.84079,4.12207 0.39462,-0.17157 0.76958,-0.67153 0.83318,-1.11119 z m 2.04062,-1.49723 c -0.51484,-0.52414 -1.07072,-0.8945 -1.23557,-0.82286 -0.16484,0.0716 -0.076,0.6449 0.19733,1.27399 0.27334,0.62906 0.82935,0.99932 1.23556,0.82282 0.40621,-0.17659 0.31744,-0.7498 -0.19734,-1.27395 z m -11.10203,0.23817 c -1.42929,-3.28938 -2.5815,-2.90524 -2.30732,0.76925 l 0.20855,2.79524 1.1745,0.17 c 1.86248,0.26929 2.1537,-0.90497 0.92428,-3.73436 z m -6.51171,3.78941 c -0.27334,-0.62905 -0.84011,-0.99468 -1.25949,-0.81246 -0.41938,0.18226 -0.53885,0.84604 -0.26552,1.47509 0.27334,0.62908 0.8401,0.99468 1.25948,0.81246 0.41938,-0.18226 0.53886,-0.84601 0.26552,-1.47509 z m -68.107405,25.90921 -0.675307,-2.95797 -1.373137,-0.69433 c -2.169086,-1.09683 -2.794758,-0.30448 -1.717474,2.17468 0.546679,1.25814 0.650847,2.43663 0.231457,2.61886 -0.419378,0.18224 -0.613437,0.67444 -0.431212,1.09381 0.182249,0.41941 0.846045,0.53889 1.475112,0.26551 0.629067,-0.27338 1.376194,0.038 1.660289,0.69179 0.92655,2.13236 1.522652,-0.15962 0.830259,-3.19238 z m -9.513505,6.15651 c -0.242988,-0.55918 -0.740279,-1.1344 -1.105249,-1.27823 -0.86674,-0.34167 -2.020525,2.27891 -1.245241,2.82833 1.010711,0.71624 2.817502,-0.47533 2.35049,-1.5501 z m 16.609272,-9.25022 c -1.076539,-0.42439 -1.92775,1.31505 -1.323766,2.70505 l 0.548432,1.26218 0.728938,-1.84912 c 0.400903,-1.01698 0.421767,-1.97017 0.04641,-2.11811 z m 18.57661,-5.73649 c -0.182217,-0.41937 0.354956,-1.06069 1.193712,-1.42517 0.838756,-0.36443 1.429578,-0.88223 1.313032,-1.15045 -0.402998,-0.92747 -3.647427,-1.25781 -4.465316,-0.45466 -0.958528,0.94122 0.40148,4.61332 1.52748,4.12405 0.419378,-0.18225 0.613408,-0.67445 0.431179,-1.0938 z m 30.103305,-12.97761 c 0.147904,-1.02236 -2.901267,-2.06033 -3.274105,-1.11452 -0.359264,0.9114 1.504709,2.68711 2.408596,2.29436 0.407794,-0.17723 0.797279,-0.70813 0.865509,-1.17984 z m -39.160598,12.31406 c -0.507182,-0.19984 -1.229898,0.0795 -1.606004,0.62075 l -0.683923,0.98414 2.134565,1.29379 2.13455,1.29384 -0.528642,-1.91441 c -0.290688,-1.05295 -0.943386,-2.07807 -1.450625,-2.27798 z m 25.642054,-11.75496 c -0.992068,-3.37527 -1.300428,-3.73241 -2.157468,-2.49911 -0.716449,1.03096 1.399029,6.22793 2.364533,5.80838 0.373497,-0.16214 0.280412,-1.6515 -0.206916,-3.30934 z m -60.339698,24.40566 -1.253992,-2.85441 -0.242173,1.46493 c -0.318214,1.92482 1.016732,4.99707 1.987939,4.57506 0.419378,-0.18225 0.198151,-1.61579 -0.491636,-3.18565 z m 94.380205,-39.42349 c -0.18222,-0.4194 -0.67444,-0.6134 -1.09382,-0.43117 -0.41937,0.18225 -0.61343,0.67444 -0.43121,1.09381 0.18222,0.41939 0.67448,0.61339 1.09385,0.43117 0.41937,-0.18225 0.61341,-0.67444 0.43118,-1.09381 z m -85.196627,34.62547 c -0.151612,-3.48341 -2.589318,-4.37636 -5.097783,-1.86741 l -1.145495,1.14575 2.527818,1.36259 c 2.910085,1.56858 3.804907,1.41419 3.71546,-0.64093 z m 17.571782,-9.35904 c -0.60426,-1.14546 -1.4997,-2.49137 -1.990174,-2.99089 l -0.891748,-0.90811 -0.725546,1.43483 c -1.192804,2.35891 2.201601,6.88554 3.943498,5.25885 l 0.762347,-0.71198 z m 13.137849,-5.02546 0.408219,-1.03558 -3.902077,1.59207 -3.902081,1.59204 0.534649,1.23043 0.534644,1.23044 2.959229,-1.78688 c 1.627611,-0.98268 3.142924,-2.2529 3.367442,-2.82246 z m 25.012559,-12.576 c -1.543958,-2.86571 -3.458709,-3.4775 -3.354,-1.07178 0.0926,2.12678 2.424269,4.80497 3.700358,4.2505 l 1.107122,-0.48108 z m 8.788444,-4.81054 -0.461683,-1.7122 -2.46004,-0.96976 -2.459997,-0.96972 0.08745,0.98817 c 0.04808,0.54352 0.868387,1.58928 1.82313,2.32384 0.954684,0.73459 1.842569,1.84239 1.973101,2.46172 l 0.237176,1.12618 0.861238,-0.768 c 0.47367,-0.42235 0.653475,-1.5385 0.399558,-2.4802 z M 31.17499,233.93332 c -1.203352,-0.70786 -2.878106,-0.99792 -3.721682,-0.64457 l -1.533795,0.64246 3.102278,0.88111 c 3.996787,1.13514 4.929729,0.7543 2.153174,-0.87907 z m -6.952607,-0.36143 c 0.752722,-1.90954 -0.284435,-3.72395 -2.569843,-4.49568 l -1.997156,-0.67442 0.325564,1.96745 c 0.652079,3.94038 3.193995,5.85975 4.241435,3.20265 z m 77.340857,-33.91216 -0.0595,-1.36818 -1.31436,0.0571 c -0.722894,0.0314 -1.25798,-0.33246 -1.189087,-0.80869 0.06885,-0.47626 -0.238118,-0.70804 -0.682239,-0.51508 -0.897029,0.38979 -0.390946,1.9809 1.119172,3.5187 1.252844,1.27585 2.202884,0.88081 2.126034,-0.88405 z m -52.202401,20.41901 c -0.175809,-0.40462 -0.834372,-0.51203 -1.463441,-0.23881 -0.629066,0.27338 -1.08139,0.6405 -1.005192,0.81588 0.07626,0.17534 0.16811,0.99876 0.204309,1.82962 l 0.06574,1.51074 1.259102,-1.59092 c 0.69252,-0.87502 1.115273,-1.92201 0.939459,-2.32664 z m 8.653739,-3.55361 c 0.962815,-1.98649 0.680294,-3.18987 -0.616604,-2.62633 -1.287328,0.55934 -2.666167,3.93758 -2.120089,5.19432 l 0.465186,1.07058 0.717528,-0.95639 c 0.394643,-0.52601 1.093934,-1.733 1.553979,-2.68218 z m 33.800173,-13.5238 c 0.25273,-0.8697 0.155163,-1.70125 -0.216814,-1.84791 -0.794422,-0.31328 -2.29545,2.36654 -1.87178,3.34157 0.456381,1.05032 1.583545,0.24415 2.0886,-1.49366 z m -75.394964,29.81165 c -0.912869,-0.35985 -1.641006,1.55471 -1.06802,2.80833 l 0.583321,1.27941 0.47316,-1.95236 c 0.26024,-1.07384 0.264922,-2.03452 0.01041,-2.13484 z m 18.469875,-6.47246 0.158399,-1.93973 -1.430253,-0.72325 -1.430211,-0.72319 -0.197679,1.26189 c -0.273657,1.74687 1.110658,4.77256 2.005524,4.3837 0.404622,-0.17565 0.806975,-1.19255 0.894117,-2.2594 z m 8.317844,-6.98019 c -0.912881,-0.35988 -1.641005,1.55471 -1.06802,2.80834 l 0.583308,1.27936 0.47319,-1.95236 c 0.260239,-1.07383 0.26492,-2.0345 0.01041,-2.1348 z m 59.105254,-26.96067 -0.83533,-0.82681 0.5748,1.48766 c 0.31613,0.81821 0.69223,1.19018 0.83536,0.82674 0.14325,-0.36338 -0.11544,-1.03287 -0.5748,-1.48761 z m -28.44667,11.05979 -0.868871,-1.99963 -0.702308,1.38889 c -0.386302,0.76392 -0.301716,1.79689 0.187938,2.29554 1.465474,1.49236 2.314459,0.45832 1.383238,-1.6848 z m -44.947494,19.64143 c -0.273342,-0.62908 -0.840131,-0.99465 -1.259509,-0.81243 -0.419378,0.18225 -0.538861,0.84602 -0.265519,1.47509 0.273342,0.62904 0.840114,0.99467 1.259492,0.81246 0.419378,-0.18225 0.538881,-0.84605 0.265549,-1.47512 z m 54.996649,-24.5399 0.447959,-2.19729 -0.966267,-0.38088 -0.96625,-0.38092 -1.233194,1.5582 c -0.678281,0.857 -0.940297,2.23235 -0.582243,3.05638 l 0.650993,1.49822 1.100551,-0.47822 c 0.605292,-0.26301 1.302084,-1.46698 1.548451,-2.67549 z m -47.596552,19.73809 c -1.568531,-1.86563 -6.484082,-5.09968 -7.254812,-4.77314 -0.526094,0.22184 -0.517145,0.60164 0.05694,2.53015 0.27614,0.92803 6.953374,4.38879 7.777032,4.03092 l 0.676761,-0.29411 z m 12.610693,-6.30614 -0.750602,-0.52165 -0.682542,1.34979 c -0.375375,0.74237 -0.344757,1.58452 0.06809,1.87141 l 0.750601,0.52165 0.682543,-1.34979 c 0.375377,-0.74237 0.344728,-1.5845 -0.06809,-1.87141 z m 6.507371,-3.81392 c -3.378579,-2.53474 -6.109167,-2.77994 -5.10023,-0.45798 0.77018,1.7725 2.841683,2.57245 4.639114,1.79141 l 1.417505,-0.61589 z m -12.497242,3.40226 0.448408,-1.54304 -1.048166,-1.06737 -1.048155,-1.06738 -0.347909,0.9826 c -0.191362,0.5404 -0.245721,1.85599 -0.120787,2.92346 l 0.227153,1.94091 0.72051,-0.31298 c 0.396295,-0.17219 0.922321,-1.00743 1.168948,-1.85607 z m -18.70465,3.3338 -1.1857,-1.95449 0.02765,2.63717 c 0.01508,1.45043 0.471375,3.08781 1.013875,3.63859 l 0.986319,1.00142 0.171755,-1.68404 c 0.09445,-0.92626 -0.361812,-2.56362 -1.013888,-3.63861 z m -6.649301,2.96565 c -0.238494,-0.54892 -0.740058,-0.86488 -1.114564,-0.70217 -0.804749,0.34971 -0.79525,2.5926 0.01854,4.37185 l 0.575772,1.26202 0.476373,-1.9666 c 0.26203,-1.08159 0.281229,-2.41569 0.04271,-2.96461 z m 19.208568,-7.2276 c -0.529627,-0.53925 -1.328769,-0.82145 -1.776072,-0.62711 l -0.813252,0.35337 1.542145,1.22052 c 1.714979,1.35728 2.559751,0.5935 1.047179,-0.94678 z m 44.186495,-19.63548 -0.101239,-1.14574 -0.855858,0.76847 c -0.470678,0.42274 -0.810292,1.28403 -0.754573,1.91421 l 0.101239,1.14576 0.855846,-0.76847 c 0.47065,-0.42276 0.810262,-1.28404 0.754576,-1.91423 z m -66.216055,28.71545 c -0.182249,-0.41939 -0.694716,-0.60462 -1.138848,-0.41162 -0.444133,0.19292 -0.446343,0.60182 -0.0049,0.90861 0.441312,0.30667 0.953873,0.49199 1.138805,0.41162 0.185015,-0.0804 0.187184,-0.48921 0.0049,-0.90861 z m 35.898715,-17.51854 c -0.182217,-0.4194 -0.582299,-0.40135 -0.88905,0.0403 -0.306807,0.44134 -0.40867,1.14573 -0.226429,1.56509 0.182217,0.41939 0.582327,0.40136 0.889079,-0.04 0.306808,-0.44132 0.408642,-1.14572 0.226429,-1.56507 z m 22.864476,-8.92154 c 0.07686,-0.53196 -0.223538,-0.80932 -0.667582,-0.61639 -0.444134,0.19293 -0.658424,0.69399 -0.476197,1.11339 0.182218,0.41937 0.482635,0.69679 0.667596,0.61641 0.185015,-0.0804 0.39921,-0.58141 0.476183,-1.11341 z m 12.795044,-6.60617 c -0.371764,-0.41406 -1.551549,-0.70409 -2.621766,-0.64454 l -1.945845,0.10838 0.462015,1.06329 c 0.403161,0.92785 1.767383,1.06509 4.107709,0.41343 0.37065,-0.10306 0.369667,-0.52642 -0.0022,-0.94047 z m 4.029058,-6.36963 c -1.057099,-0.84296 -1.807097,0.11878 -1.522301,1.95186 0.157741,1.0151 0.617075,2.07535 1.021009,2.35599 0.844585,0.5869 1.336636,-3.64175 0.501265,-4.30785 z m -60.563017,26.47118 -0.589389,-1.9391 -0.52303,1.98686 c -0.633333,2.40588 -0.226492,3.61017 0.884993,2.61939 0.449214,-0.40041 0.551538,-1.60065 0.227436,-2.66715 z m 13.176323,-5.60097 c -1.352851,-3.11346 -2.447726,-2.98371 -3.96299,0.46967 l -1.297415,2.95685 1.759753,-0.0657 c 0.967833,-0.0361 2.37067,-0.3026 3.117381,-0.592 l 1.357683,-0.52622 z m 11.755992,-4.33286 c 0.185204,-2.26755 -0.594793,-2.83825 -1.997076,-1.4612 -1.059549,1.04046 -0.109599,4.26718 1.101313,3.74102 0.404623,-0.17565 0.807718,-1.20171 0.895763,-2.27982 z m -34.813181,13.16498 c -0.344102,-1.47078 -0.735986,-3.54404 -0.87107,-4.6071 l -0.245597,-1.93286 -0.710221,0.30857 c -0.922707,0.40095 -1.129028,6.37605 -0.287042,8.31377 l 0.651406,1.49917 1.044007,-0.45365 1.044007,-0.45364 z m 3.173284,-0.35274 c -0.182219,-0.41937 -0.582332,-0.40133 -0.889082,0.0403 -0.306808,0.4413 -0.408641,1.14569 -0.226398,1.56509 0.182218,0.41936 0.582302,0.40135 0.889066,-0.0403 0.306808,-0.44131 0.408657,-1.14573 0.22643,-1.56512 z m 38.521318,-17.76424 c 0.462668,-3.34056 0.292101,-4.43648 -0.626738,-4.02724 -0.617944,0.27526 -1.955527,6.45197 -1.582871,7.30962 0.591185,1.36055 1.819223,-0.46364 2.209609,-3.28238 z m 36.186923,-14.35369 c -0.457157,-0.66813 -1.500695,-1.06527 -2.318848,-0.88262 l -1.487492,0.33217 1.683845,1.15853 c 2.045634,1.40745 3.263173,1.05869 2.122495,-0.60808 z m -63.562802,26.47558 c -0.182219,-0.41937 -0.674471,-0.6134 -1.093849,-0.43115 -0.419378,0.18225 -0.613409,0.67442 -0.431184,1.09382 0.182218,0.41935 0.674443,0.61339 1.09382,0.43117 0.419379,-0.18225 0.613437,-0.67445 0.431213,-1.09384 z m 49.546071,-24.54966 c -0.572113,-0.58261 -1.518182,-0.85165 -2.102405,-0.59779 -1.280353,0.55633 -1.148917,0.95899 0.82221,2.51906 l 1.509603,1.19475 0.405354,-1.02836 c 0.222973,-0.5656 -0.06269,-1.50504 -0.634762,-2.08766 z m -9.795717,5.46453 c -0.182219,-0.4194 -0.67444,-0.61343 -1.093817,-0.43118 -0.419379,0.18225 -0.613412,0.67441 -0.431184,1.09381 0.182217,0.41937 0.674454,0.61343 1.093833,0.43121 0.419377,-0.18225 0.613395,-0.67448 0.431168,-1.09384 z m 20.505206,-13.41385 -1.081831,-0.15648 -0.06467,-1.48578 -0.06464,-1.48577 -0.721722,0.31359 c -0.836046,0.36327 -1.06176,4.59508 -0.261873,4.9104 0.295182,0.11626 1.153451,-0.27243 1.90681,-0.86384 l 1.369746,-1.07561 -1.081801,-0.15648 z m -66.280489,28.2442 c -0.09031,-2.07509 -1.232702,-4.37581 -2.005838,-4.03987 -0.662641,0.28783 -0.489528,3.2047 0.301561,5.08118 0.575985,1.36499 1.777148,0.63105 1.704311,-1.04136 z m 25.933898,-12.73858 c 0.220052,-2.6939 -1.08903,-2.76884 -1.634507,-0.0937 l -0.464192,2.27696 -2.562755,0.55296 -2.562751,0.55295 1.044066,0.3818 c 2.797853,1.02321 5.949642,-0.84902 6.180139,-3.67116 z m 22.810561,-8.81268 c -0.228691,-2.22201 -1.412408,-3.0203 -3.27736,-2.20995 -1.602988,0.69654 -1.580637,0.99996 0.243052,3.29368 1.49173,1.87617 3.273511,1.23981 3.034305,-1.08375 z m 7.468012,-4.72379 -0.537551,-1.23714 -0.731286,1.44625 c -0.402253,0.79539 -0.675026,1.57577 -0.606231,1.7341 0.06875,0.15837 0.639784,0.0644 1.268882,-0.20896 0.629064,-0.27337 0.901855,-1.05368 0.606199,-1.7341 z M 34.58363,190.24274 c -0.313909,-0.72243 -1.271014,-1.51701 -2.126935,-1.76574 l -1.556245,-0.45226 1.007444,2.31855 c 0.554092,1.27518 1.050857,3.04687 1.103794,3.93712 l 0.09637,1.61861 1.023141,-2.17142 c 0.562734,-1.19427 0.766322,-2.76246 0.452419,-3.48486 z m -13.707354,7.27113 c -0.08745,-2.0092 -0.205156,-2.10752 -1.270608,-1.06127 -0.524156,0.51486 -0.745375,1.41389 -0.491533,1.99809 0.627714,1.44461 1.837793,0.80131 1.762205,-0.93666 z M 48.85065,181.35355 c -0.911144,-2.09693 -1.955907,-3.6825 -2.321682,-3.52357 -0.803192,0.34898 0.724039,6.69543 1.789379,7.43575 1.832747,1.27364 2.059993,-0.39633 0.532303,-3.91218 z m 12.989354,-3.48489 c -0.273343,-0.62908 -0.747961,-0.78261 -1.054726,-0.34122 -0.306806,0.44133 -0.33411,1.31729 -0.06077,1.94637 0.273342,0.62907 0.747989,0.7826 1.054739,0.34119 0.306808,-0.44133 0.334095,-1.31726 0.06074,-1.94634 z m 22.554868,-11.57118 c 0.372688,-0.94539 0.341368,-2.46147 -0.06959,-3.36906 l -0.747745,-1.6499 -0.717463,2.45173 c -1.10971,3.79214 0.192462,5.97125 1.534239,2.56748 z m 8.060423,-5.78151 -1.53588,-1.52115 0.807507,1.99085 c 0.444818,1.09468 1.166365,2.13234 1.605184,2.30523 1.298889,0.51202 0.778231,-1.13566 -0.87684,-2.7749 z m -64.423882,27.16447 c -1.040415,-2.39444 -2.608587,-2.56293 -2.508777,-0.2696 0.07221,1.65825 1.6633,3.35643 2.716299,2.89886 0.432548,-0.1879 0.339161,-1.37112 -0.207513,-2.62923 z m 32.75922,-12.19488 c -0.142437,-0.31202 -0.767691,-0.91128 -1.387974,-1.33231 l -1.127788,-0.76554 -0.163867,2.00667 -0.1639,2.00659 1.551861,-0.67429 c 0.853512,-0.37087 1.434762,-0.92938 1.291668,-1.24112 z m -18.357945,5.34355 c 0.886876,-1.95792 -0.0449,-5.26379 -1.544812,-5.48077 -0.481924,-0.0698 -0.731296,1.64625 -0.554257,3.81322 0.346771,4.24519 0.776702,4.58675 2.099069,1.66755 z m 11.934839,-8.68372 -0.658106,-1.51458 -1.821455,0.50198 -1.82158,0.50165 0.63047,1.45096 c 0.795224,1.83013 1.86243,2.26243 3.246677,1.31512 l 1.082126,-0.7405 z m -19.350032,7.74048 c -1.759814,-2.0552 -2.206156,-2.14397 -2.462931,-0.4899 -0.36422,2.34609 0.482708,3.38991 2.159353,2.66138 l 1.576418,-0.68498 z m 24.583411,-10.07779 -0.0613,-1.40882 -0.774799,0.69566 c -0.974736,0.87523 -0.849279,2.88096 0.152933,2.44548 0.409463,-0.17786 0.716896,-0.95748 0.683177,-1.73232 z m 19.387073,-8.80152 c -0.182218,-0.41939 -0.846004,-0.53885 -1.475071,-0.26552 -0.629096,0.27338 -0.994685,0.84011 -0.812461,1.2595 0.182218,0.41937 0.846017,0.5389 1.475112,0.26552 0.629068,-0.27336 0.994645,-0.84014 0.81242,-1.2595 z m 7.968529,-4.25454 0.734815,-1.08363 -1.13708,-1.92855 c -1.049538,-1.7799 -2.853449,-1.829 -2.179865,-0.0594 0.162045,0.42816 0.206444,1.73461 0.09685,2.90399 l -0.199249,2.12615 0.974963,-0.43736 c 0.536502,-0.24007 1.305566,-0.9251 1.709742,-1.52109 z m -56.619376,22.67472 c 0.07686,-0.53195 -0.203082,-0.81821 -0.622566,-0.63596 -0.419379,0.18225 -0.82549,0.76661 -0.902433,1.29859 -0.07686,0.53195 0.203081,0.81827 0.622578,0.63599 0.419378,-0.18225 0.825447,-0.76661 0.902421,-1.29862 z m 29.726569,-15.25702 c -0.542718,-0.55277 -1.049268,-1.14848 -1.125479,-1.32389 -0.07626,-0.17564 -0.665317,-0.0898 -1.309142,0.1898 l -1.170608,0.50867 1.478829,1.17034 c 0.813341,0.64373 1.846574,1.01061 2.296067,0.81529 l 0.817257,-0.3551 z M 76.566372,151.5689 c -1.029581,-1.27499 -1.841909,-2.83565 -1.805343,-3.46804 0.03664,-0.63244 -0.196452,-0.21965 -0.518261,0.91721 l -0.584992,2.06715 1.381146,2.00597 c 0.759654,1.1033 1.634363,2.55884 1.943797,3.23455 l 0.561458,1.22906 0.446405,-1.83354 0.446404,-1.83355 -1.871968,-2.31821 z m -32.92679,17.06308 c -0.812151,-0.82704 -2.496535,-0.84441 -2.13922,-0.022 0.492246,1.13284 2.184647,2.20738 2.58019,1.6382 0.261183,-0.37595 0.06275,-1.10318 -0.440857,-1.6162 z m -3.840537,1.16558 c 0.08374,-0.57839 -0.350055,-1.24951 -0.963927,-1.49144 l -1.115952,-0.4399 -0.161762,1.98054 -0.161762,1.98058 1.125594,-0.48909 c 0.619069,-0.26897 1.194059,-0.96231 1.277721,-1.54066 z m -11.299698,2.26786 0.635285,-2.99698 -0.96459,-1.55368 -0.964592,-1.55365 -0.777624,3.94731 c -0.427702,2.17099 -0.59931,4.35777 -0.381317,4.85942 0.695872,1.60151 1.797892,0.38732 2.452782,-2.70238 z m 43.959712,-17.7399 c -0.273343,-0.62907 -0.631866,-1.08517 -0.796682,-1.01356 -0.164842,0.0716 -0.2735,0.73072 -0.241607,1.46469 0.03183,0.73402 0.390351,1.19009 0.796673,1.01353 0.406205,-0.17661 0.514939,-0.83559 0.241606,-1.46466 z m -17.884142,3.69992 c -0.186082,-1.80789 -1.351313,-3.04684 -2.428317,-2.57887 -0.347013,0.15083 -0.33475,1.36921 0.02733,2.70758 l 0.658226,2.43339 0.960316,-0.41725 c 0.5282,-0.22938 0.880325,-1.1947 0.782492,-2.14485 z m 6.0023,-6.01084 -0.496992,-1.14381 -0.731314,1.44625 c -0.402213,0.79541 -0.507647,1.9609 -0.234316,2.58997 l 0.496991,1.14378 0.731285,-1.44621 c 0.402209,-0.79543 0.507675,-1.96095 0.234346,-2.58998 z m 24.039859,-9.34573 c -0.279063,-0.64224 -1.148301,-1.13981 -1.931655,-1.10572 l -1.424266,0.0618 -0.21141,1.35703 c -0.340866,2.18763 0.142753,2.56291 2.168446,1.68271 l 1.90628,-0.82833 z m -48.193395,20.51606 c -0.182218,-0.4194 -0.654181,-0.62224 -1.048831,-0.45077 -0.394624,0.17157 -0.780474,0.74703 -0.857449,1.27904 l -0.139923,0.96732 1.188766,-0.51655 c 0.653823,-0.28407 1.039662,-0.8597 0.857434,-1.27904 z m -5.097288,-1.30008 c -0.431847,-0.99385 -3.031727,-1.58906 -3.355332,-0.76815 -0.323607,0.82094 1.983106,2.15988 2.976966,1.72804 0.368021,-0.15994 0.538292,-0.59185 0.378366,-0.95989 z m 14.712658,-7.86359 c -0.455568,-1.04847 -1.11649,-1.78105 -1.468404,-1.62812 -0.352084,0.15302 -0.658247,1.30578 -0.680391,2.5618 l -0.04025,2.28369 1.508689,-0.65557 1.508661,-0.65554 z m 9.422733,-4.16836 c -0.199248,-4.57808 -2.115956,-5.78866 -3.939921,-2.48833 l -1.147205,2.0758 1.936498,1.18699 c 2.282022,1.39873 3.235039,1.16444 3.150628,-0.77446 z m 17.430846,-7.04658 c -0.182249,-0.4194 -0.482635,-0.6968 -0.667595,-0.61642 -0.185015,0.0804 -0.399224,0.58139 -0.476184,1.11342 -0.07685,0.53195 0.223539,0.80932 0.667583,0.61638 0.444133,-0.19293 0.658423,-0.694 0.476196,-1.11338 z m 8.421658,-7.73851 -0.828309,-1.90626 -1.143751,0.49696 -1.143779,0.49699 0.828309,1.90629 0.828311,1.90627 1.143779,-0.497 1.143751,-0.49699 z m -8.879962,3.72864 c -0.08446,-1.94094 -1.268038,-2.34584 -1.549881,-0.53025 -0.282172,1.81758 0.06348,2.66558 0.932504,2.28799 0.374508,-0.16277 0.652301,-0.95371 0.617292,-1.7577 z m 35.316754,-17.9889 -0.51653,-1.18874 -0.56685,0.81563 c -0.31174,0.44861 -0.23063,1.04935 0.18033,1.33491 1.11317,0.77359 1.48504,0.37757 0.90307,-0.9618 z m -64.9323,27.88869 c -0.167323,-0.38508 -0.746704,-1.15077 -1.287573,-1.70151 -1.269855,-1.29316 -2.172134,-0.002 -1.338827,1.91559 l 0.643093,1.48003 1.14375,-0.49699 c 0.629065,-0.27337 1.006881,-0.81204 0.839557,-1.19712 z m 17.15973,-8.4903 c -0.17147,-0.39464 -0.65489,-0.56844 -1.074269,-0.38622 -0.419377,0.18224 -0.530059,0.86628 -0.245974,1.52008 l 0.516539,1.18877 0.557734,-0.80255 c 0.306807,-0.44134 0.417433,-1.12546 0.24597,-1.52008 z m -23.416307,9.09751 -0.290028,-1.30774 -1.850096,0.19042 c -2.458838,0.25326 -2.64132,1.01957 -0.580233,2.43775 1.887037,1.2983 3.163779,0.67862 2.720353,-1.32047 z m 11.708262,-4.74996 c -0.341686,-0.78638 -0.872745,-2.59517 -1.180037,-4.01963 l -0.558824,-2.58993 -0.857807,0.37274 c -0.4718,0.20487 -0.608663,0.94618 -0.304105,1.64705 0.304545,0.70094 0.261527,2.13964 -0.09559,3.19723 l -0.649311,1.92282 1.464296,0.74047 c 1.990124,1.00633 2.932312,0.45745 2.181316,-1.27091 z M 76.54179,130.34287 c -0.816966,-1.88019 -3.048048,-2.90578 -2.280919,-1.04851 0.130906,0.31702 0.366661,1.43834 0.523781,2.49183 l 0.285692,1.91544 1.232716,-0.53563 1.232687,-0.53562 z m -16.239507,5.56684 c -0.09612,-2.20881 -1.009265,-2.11931 -1.19177,0.11688 l -0.160128,1.96017 0.707771,-0.30763 c 0.389264,-0.16905 0.679129,-0.96535 0.64412,-1.76936 z m 12.095616,-4.67275 c -0.182219,-0.4194 -0.482619,-0.69676 -0.667553,-0.6164 -0.185014,0.0804 -0.399223,0.58137 -0.476198,1.11337 -0.07685,0.53196 0.223538,0.80935 0.667566,0.61642 0.444134,-0.19293 0.658411,-0.69402 0.476185,-1.11339 z m -31.506586,6.76488 c -0.298827,-0.68768 -0.156358,-1.91141 0.316537,-2.71944 l 0.859846,-1.46913 -0.924339,-0.64236 c -1.563033,-1.0862 -2.219427,-0.2077 -2.003842,2.68143 0.255055,3.41856 0.557485,4.15484 1.532527,3.73118 0.419377,-0.18225 0.518053,-0.89398 0.219233,-1.58168 z m 18.847245,-8.1552 c -0.04161,-0.46948 -0.876131,-1.30512 -1.854477,-1.85698 l -1.779041,-1.00322 1.081349,2.55167 1.081363,2.55174 0.774343,-0.69531 c 0.425866,-0.38238 0.740372,-1.07939 0.698882,-1.54892 z m -9.502133,0.45579 c -0.950381,-2.18722 -2.765818,1.77477 -1.846291,4.02929 l 0.442443,1.0813 0.925339,-2.04276 c 0.508929,-1.12355 0.724778,-2.5043 0.47969,-3.06833 z m 41.358957,-15.3832 c -0.344257,-0.79226 -2.712362,-1.72217 -3.506737,-1.377 -0.339059,0.14738 0.110288,0.76793 0.99857,1.37907 1.631545,1.12253 2.996341,1.12143 2.508167,-0.002 z m 11.451688,-7.02369 c -0.35371,-0.81398 -0.98622,-1.33092 -1.40559,-1.14869 -0.41938,0.18225 -0.38098,1.20937 0.0854,2.28258 l 0.84785,1.95126 0.55774,-0.80257 c 0.3068,-0.44132 0.26834,-1.46857 -0.0854,-2.28258 z m -42.218702,13.40452 c -0.230356,-0.53016 -1.431626,-0.71316 -2.669534,-0.40669 -1.237942,0.30635 -2.804542,0.63494 -3.481467,0.73 l -1.230762,0.17282 0.385686,1.64534 0.385697,1.64536 0.248456,-1.27175 0.248488,-1.27176 1.451872,-0.0631 c 0.79851,-0.0348 1.957668,0.51664 2.575785,1.22538 l 1.123914,1.28859 0.690292,-1.36513 c 0.379657,-0.75081 0.501854,-1.79886 0.271489,-2.329 z M 97.878873,107.4753 c -0.441323,-0.30699 -1.276805,-0.35171 -1.856362,-0.0999 -0.579586,0.252 -1.116737,0.89314 -1.193697,1.4252 l -0.139923,0.96725 1.996283,-0.86743 1.996282,-0.86742 z m -55.454158,19.45237 c -0.342139,-0.7874 -0.928513,-1.29853 -1.30302,-1.13579 -0.777545,0.33785 -0.802297,2.5491 -0.04798,4.28513 l 0.510465,1.17478 0.731316,-1.44625 c 0.40221,-0.79541 0.45136,-2.09046 0.109192,-2.87787 z m 31.193504,-11.51096 c 0.07893,-0.96586 -0.163114,-1.87696 -0.537815,-2.02464 -0.955849,-0.3768 -2.084043,2.10243 -1.533416,3.36964 0.658719,1.51599 1.903587,0.7076 2.071202,-1.345 z m 16.885194,-9.26903 c -0.54668,-1.25816 -1.347871,-2.13376 -1.780418,-1.94582 -1.052943,0.45753 -0.897324,2.77942 0.265612,3.96369 1.60834,1.63787 2.555224,0.37654 1.514806,-2.01787 z m -42.326216,17.72198 c -0.457157,-0.66811 -1.448006,-1.077 -2.201765,-0.90874 l -1.370462,0.30605 0.86098,1.26476 c 0.473552,0.69558 0.92447,1.33909 1.002103,1.42998 0.07758,0.0911 0.680975,-0.0695 1.340794,-0.3561 l 1.199687,-0.5213 z M 79.662591,110.4049 c -0.273342,-0.62903 -0.803396,-1.01063 -1.177903,-0.84789 -0.374506,0.16277 -0.654787,0.8964 -0.622838,1.63037 l 0.05807,1.33444 1.119833,-0.48657 c 0.615925,-0.26772 0.89619,-1.00127 0.622851,-1.63035 z m 16.178368,-6.57653 c -0.182218,-0.41937 -0.67444,-0.61339 -1.093817,-0.43118 -0.419379,0.18226 -0.613409,0.67444 -0.431181,1.09381 0.182218,0.4194 0.67444,0.61343 1.093817,0.43121 0.419379,-0.18225 0.613408,-0.67444 0.431181,-1.09384 z m -21.832736,3.99434 c -0.353699,-0.814 -0.986243,-1.33093 -1.405621,-1.14871 -0.419378,0.18225 -0.380956,1.20941 0.08538,2.28265 l 0.847856,1.95126 0.557735,-0.80259 c 0.306807,-0.4413 0.268378,-1.46858 -0.08534,-2.28261 z m -29.845035,11.91572 -0.797324,-0.5541 -0.206003,1.31937 c -0.327482,2.09759 0.282046,2.79202 1.074719,1.22443 0.399263,-0.78961 0.367144,-1.68496 -0.07139,-1.9897 z m 12.600467,-5.70673 c -0.247419,-0.56938 -0.906528,-0.99486 -1.464736,-0.94553 -0.55819,0.0494 -1.345664,-0.443 -1.74989,-1.09409 l -0.735006,-1.18378 1.252922,-1.09277 c 0.689132,-0.60096 1.113871,-1.41282 0.94393,-1.80392 -0.576085,-1.32581 -1.720345,-0.10804 -2.426216,2.58206 l -0.702844,2.67863 2.210413,1.60263 c 2.201242,1.59594 3.527513,1.22698 2.671427,-0.74323 z m 30.032892,-13.13679 c 0.908217,-2.303914 0.375562,-3.271065 -1.381204,-2.507725 -1.499957,0.651729 -1.861537,3.080585 -0.590137,3.964125 0.986524,0.68556 1.184691,0.53914 1.971337,-1.45634 z m -6.474055,0.67124 c 0.20327,-2.488862 -0.357385,-3.53017 -1.608169,-2.986693 -1.54022,0.669242 -2.033478,3.148013 -0.863499,4.339453 1.35423,1.37906 2.290402,0.86673 2.471601,-1.35282 z m 15.586594,-5.925717 c -0.182219,-0.419387 -0.674471,-0.61339 -1.093849,-0.431175 -0.419378,0.182248 -0.613408,0.674445 -0.431183,1.093809 0.182218,0.419399 0.674443,0.613435 1.09382,0.431209 0.419379,-0.182249 0.613437,-0.674479 0.431212,-1.093843 z M 47.812451,114.25112 c 0.252729,-0.86971 0.119656,-1.71525 -0.295716,-1.87902 -0.91236,-0.35964 -2.609492,1.9643 -2.482662,3.39955 0.131848,1.49194 2.237857,0.33936 2.778424,-1.52041 z m 14.461105,-6.31441 -0.516538,-1.18876 -0.557734,0.80255 c -0.306808,0.44132 -0.417429,1.12548 -0.245975,1.52009 0.171473,0.39463 0.654896,0.56842 1.074274,0.38621 0.419378,-0.18225 0.530044,-0.86629 0.245973,-1.52009 z M 92.423093,93.876263 c -0.273343,-0.629076 -0.747989,-0.782605 -1.054753,-0.341216 -0.306807,0.441323 -0.334082,1.317281 -0.06074,1.946362 0.273342,0.62907 0.747961,0.782606 1.054713,0.341183 0.306807,-0.441323 0.334122,-1.31726 0.06077,-1.946329 z m -17.698394,3.078319 c -0.783104,-1.802228 -2.166067,0.163401 -1.594894,2.266864 l 0.522802,1.924654 0.778121,-1.538809 C 74.8587,98.760925 74.99106,97.56719 74.724841,96.954513 Z m 12.936558,-5.486495 c 0.494371,-3.994438 0.442046,-4.219389 -0.851046,-3.657527 -1.010776,0.439189 -1.951193,5.347042 -1.308142,6.826973 0.723662,1.665443 1.746629,0.163707 2.159188,-3.169446 z m -5.833325,2.958757 0.16038,-1.963581 -1.272708,0.870964 c -0.699895,0.47919 -1.128354,1.517445 -0.951955,2.307564 0.446499,1.999995 1.870143,1.162116 2.064286,-1.214913 z M 51.815214,106.81563 c -0.147402,-0.33924 -1.061201,-1.06393 -2.030657,-1.61049 l -1.762655,-0.99367 0.667206,1.59858 c 0.365234,0.87999 0.994272,1.72842 1.39524,1.88654 1.00871,0.39767 2.056235,-0.13544 1.732101,-0.88143 z m 5.293379,-4.13069 c -0.547936,-2.029 -1.973839,-1.81442 -1.882548,0.28344 0.0959,2.20316 0.65222,2.99943 1.541664,2.20656 0.449214,-0.40042 0.602621,-1.52086 0.340884,-2.48987 z m 5.691104,-4.010116 c 0.25273,-0.86967 0.271301,-1.64602 0.04122,-1.725176 -0.786818,-0.270544 -3.286197,2.643682 -2.943558,3.432232 0.515263,1.18584 2.380451,0.0889 2.902341,-1.707056 z M 95.807221,82.888975 c -0.343204,-0.789831 -0.898355,-1.316847 -1.234011,-1.170983 -0.923053,0.401073 -1.697186,2.769845 -1.245176,3.810113 l 0.399705,0.919888 1.351743,-1.061478 1.351746,-1.061445 z M 51.400273,100.95961 c -0.07444,-1.710346 -2.068226,-1.984987 -2.309365,-0.31809 -0.19928,1.37758 0.688703,2.35296 1.73029,1.90036 0.349749,-0.15209 0.61035,-0.86399 0.579075,-1.58227 z m 8.261938,-7.853729 -1.140921,-0.449748 -0.151674,1.85696 c -0.195887,2.398341 0.935012,2.844132 1.779596,0.701505 l 0.653987,-1.65897 z M 85.657845,82.251637 c -1.802048,-2.268881 -3.433825,-2.198653 -3.193363,0.137315 0.23083,2.242612 1.401533,3.074894 3.216342,2.286319 L 87.094898,84.06084 Z M 73.98274,87.945456 c 0.07685,-0.531948 -0.203082,-0.818238 -0.622581,-0.635957 -0.419406,0.18225 -0.825476,0.76661 -0.902452,1.298621 -0.07686,0.531949 0.203082,0.818207 0.622568,0.635925 0.419407,-0.182248 0.82549,-0.766578 0.902465,-1.298589 z m 5.984347,-3.96003 c -0.273344,-0.629074 -0.84013,-0.994642 -1.259508,-0.812425 -0.419378,0.18225 -0.538861,0.846016 -0.265518,1.47509 0.273342,0.629043 0.840113,0.994674 1.259491,0.812455 0.419378,-0.182248 0.538877,-0.846046 0.26555,-1.47512 z m -16.424106,2.152617 -0.196673,-2.635641 -1.104096,0.479725 -1.104095,0.479756 0.635555,1.462677 c 0.34955,0.804443 0.665864,2.161605 0.703124,3.01582 l 0.06761,1.553175 0.597588,-0.859935 c 0.328634,-0.473063 0.509128,-2.045971 0.400968,-3.495577 z m -8.171847,1.715408 c 0.08345,-1.021949 -0.1151,-1.735109 -0.441251,-1.584785 -0.702549,0.322393 -2.54634,5.16561 -2.237923,5.875408 0.410234,0.944116 2.52873,-2.448615 2.679174,-4.290623 z M 74.612289,75.834224 c -0.171471,-0.394633 -0.654894,-0.568431 -1.074273,-0.38618 -0.419377,0.182249 -0.530086,0.86625 -0.245974,1.520086 l 0.516539,1.188769 0.557763,-0.802589 c 0.306806,-0.441296 0.41743,-1.125454 0.245973,-1.520086 z m 7.912278,-5.207809 c -0.87116,-0.59935 -2.033243,-2.123805 -2.582405,-3.387642 l -0.998466,-2.297883 -0.862348,2.187685 c -1.055919,2.678627 -1.172609,2.42483 2.25979,4.916054 l 2.828644,2.053103 0.469399,-1.190781 0.469396,-1.190748 z m -2.93642,3.099214 c 0.07685,-0.531981 -0.22354,-0.809344 -0.667556,-0.616412 -0.444133,0.192933 -0.658424,0.693993 -0.476195,1.113387 0.182216,0.419362 0.482633,0.69679 0.667566,0.616411 0.185015,-0.08044 0.399211,-0.581406 0.476185,-1.113386 z m 11.207739,-7.031687 c 0.229006,-1.313516 -0.1195,-2.318717 -0.714315,-2.060237 -1.074873,0.467031 -2.55174,3.0063 -2.495825,4.291222 l 0.06171,1.417366 1.478836,-1.277286 c 0.813386,-0.702509 1.564715,-1.769484 1.669595,-2.371065 z m -31.214518,12.099072 -0.66265,-1.525052 -1.143751,0.496975 -1.143779,0.497007 0.66265,1.525019 0.662653,1.525051 1.143779,-0.497007 1.14375,-0.496974 z M 64.413256,73.90659 C 63.88384,72.428767 63.018898,70.795371 62.491254,70.276809 l -0.959468,-0.942795 0.441474,2.52758 c 0.242801,1.390187 0.748757,3.34588 1.124328,4.34599 l 0.682883,1.818377 0.79763,-0.716207 c 0.438784,-0.393818 0.364543,-1.92534 -0.164841,-3.403164 z m 21.148691,-12.139983 -0.305079,-1.375481 -0.999223,0.981225 c -1.174576,1.153387 -0.404853,3.577149 0.794224,2.501186 0.448337,-0.402426 0.677933,-1.350438 0.510084,-2.10693 z m 1.571968,-7.18308 C 86.005241,51.986 84.690138,51.495436 84.391384,53.560541 c -0.19727,1.363667 2.208609,4.427688 3.154198,4.01681 0.411394,-0.178794 0.226146,-1.525963 -0.411667,-2.993824 z m -7.279267,-0.06316 -0.682197,-1.570016 -0.557733,0.802588 c -0.306809,0.441295 -0.342885,1.29702 -0.08032,1.901335 0.262598,0.604313 0.820557,0.949676 1.239935,0.767426 0.419378,-0.18225 0.455511,-1.037817 0.08029,-1.901333 z m 3.880679,-9.844488 c -0.709296,-1.63239 -0.831824,-1.643922 -2.285864,-0.215871 -1.198375,1.176766 -0.589851,3.013872 0.964487,2.911938 1.606026,-0.105265 2.05181,-1.014879 1.32135,-2.695973 z M 79.342788,32.480624 c -0.273343,-0.629043 -0.747991,-0.782572 -1.05474,-0.341151 -0.306809,0.441294 -0.334095,1.317254 -0.06074,1.946329 0.273343,0.629076 0.747961,0.782604 1.054725,0.341185 0.306807,-0.441295 0.33411,-1.317287 0.06077,-1.946363 z m -8.0995,269.223696 c -0.182218,-0.41939 -0.09688,-2.08814 0.189665,-3.70833 0.286572,-1.62021 0.670106,-2.60269 0.85233,-2.18329 0.182219,0.41937 0.09687,2.0881 -0.189695,3.70831 -0.286541,1.62019 -0.670094,2.60268 -0.852322,2.18331 z m -0.988643,-11.36536 c -1.920432,-2.14511 -2.716642,-4.70093 -1.613756,-5.18016 0.388655,-0.16873 0.482979,-0.82172 0.209649,-1.45076 -0.273342,-0.62911 -0.153875,-1.29288 0.265518,-1.47513 1.063376,-0.46203 2.843576,4.1069 2.865833,7.35556 l 0.01854,2.70062 z m 6.667945,-4.77506 c -0.343514,-0.80636 -0.498697,-2.1326 -0.34633,-2.94669 l 0.276988,-1.48003 0.482313,2.50983 c 0.591082,3.07621 0.419133,3.87447 -0.412974,1.91689 z m 60.66246,-58.7408 -1.1964,-0.47162 0.67368,1.55044 c 0.87594,2.01587 2.4072,2.62257 2.01891,0.79989 -0.16495,-0.77387 -0.83824,-1.61925 -1.49619,-1.87871 z m -2.25127,-8.42816 c -0.30097,-0.11878 -0.95458,0.31954 -1.45261,0.97344 l -0.90534,1.18926 2.14597,1.30079 2.14598,1.30083 -0.6933,-2.27442 c -0.38146,-1.25085 -0.93964,-2.37144 -1.24061,-2.49009 z m -4.92498,-12.87752 -0.41692,-2.31162 -0.69546,0.30229 c -0.86213,0.37457 -0.80181,2.58994 0.12886,4.73179 l 0.7018,1.61514 0.34931,-1.0129 c 0.19215,-0.55712 0.1617,-2.05321 -0.0676,-3.32461 z m -2.26825,-6.49283 c -0.27333,-0.62905 -0.84011,-0.99468 -1.25949,-0.81245 -0.41938,0.18225 -0.53887,0.84604 -0.26555,1.47511 0.27334,0.62908 0.84013,0.99464 1.25951,0.81244 0.41937,-0.18225 0.53886,-0.84602 0.26552,-1.4751 z m -2.29097,-1.27072 c 1.07014,-0.46499 -0.0319,-2.35249 -1.64774,-2.82207 l -1.43505,-0.41703 0.0591,1.35719 c 0.0324,0.74644 -0.50844,1.60372 -1.202,1.9051 l -1.26107,0.54794 1.49011,0.75351 c 0.81954,0.41443 1.89656,0.35438 2.39331,-0.13354 0.49675,-0.4879 1.21829,-1.02387 1.60338,-1.19119 z m 2.29332,-9.15477 -0.66264,-1.52499 -1.14378,0.49698 c -1.16085,0.50442 -0.86324,2.29263 0.469,2.81779 1.38671,0.54665 1.9975,-0.27055 1.33742,-1.78978 z m -4.1611,-9.57639 -1.80273,-4.14879 -1.02286,0.44444 -1.02282,0.44444 1.54063,3.91937 c 0.84725,2.15567 1.88518,4.15881 2.30635,4.45147 1.7015,1.18246 1.70216,-1.19685 9.9e-4,-5.11093 z m -6.32119,2.92585 -1.2829,-1.66742 -1.51984,1.70991 c -0.8359,0.94047 -1.32607,2.16315 -1.08928,2.71709 l 0.43071,1.00702 1.25938,-1.09843 1.25939,-1.09842 0.88861,0.61754 c 1.42032,0.98704 1.4538,-0.36825 0.0541,-2.18737 z m 8.13197,-13.32972 c -1.0916,-2.55161 -2.62153,-4.14724 -3.5785,-3.73143 l -0.73233,0.31821 1.07878,1.23685 1.07875,1.23685 -0.9942,0.97629 -0.9942,0.97632 2.29558,1.87025 2.29562,1.87023 0.2114,-1.35697 c 0.11629,-0.74634 -0.18112,-2.27479 -0.66091,-3.3966 z m -14.84126,8.86744 c -0.51484,-0.52412 -1.07075,-0.89443 -1.23556,-0.82282 -0.16484,0.0716 -0.0761,0.64489 0.1973,1.27395 0.27334,0.62908 0.82934,0.99936 1.23557,0.82286 0.40621,-0.1766 0.3174,-0.7498 -0.19733,-1.27399 z m 2.43794,-6.15192 -0.66266,-1.52502 -0.55773,0.80259 c -0.3068,0.4413 -0.25958,1.48885 0.10487,2.32761 l 0.66264,1.52498 0.55776,-0.80258 c 0.3068,-0.4413 0.25955,-1.48883 -0.10487,-2.32758 z m 5.79809,-1.98818 c -0.50382,-0.51295 -1.22231,-0.79958 -1.59684,-0.63682 -0.78241,0.33997 -0.14037,2.19404 0.90202,2.60498 1.16687,0.46 1.67254,-0.9724 0.69475,-1.96813 z m -11.10462,-1.87963 -0.6863,-1.57947 -1.09876,0.47743 c -1.5648,0.67991 -1.60054,2.25421 -0.0956,4.21012 l 1.29894,1.68823 0.63402,-1.60842 c 0.34873,-0.88462 0.32522,-2.31916 -0.0522,-3.18789 z m 6.73441,-1.12297 c 0.16423,-2.01122 -1.01192,-2.60482 -2.0891,-1.05457 l -0.68944,0.99207 1.04198,1.06111 c 1.33152,1.35594 1.55472,1.2276 1.7366,-0.99852 z m 1.67089,-6.69509 c 0.25273,-0.8697 0.11966,-1.71522 -0.29571,-1.87899 -0.91238,-0.35966 -2.60951,1.96427 -2.48268,3.39952 0.13185,1.49193 2.23787,0.33939 2.77843,-1.5204 z m -7.92753,2.65908 c -0.0712,-0.16403 -1.37209,-1.43245 -2.89081,-2.81902 -3.07982,-2.81182 -3.87336,-2.3172 -2.25562,1.40589 l 1.0768,2.47812 1.12027,-0.0283 c 1.40331,-0.0371 3.12115,-0.64009 2.94933,-1.03551 z m 1.62274,-6.69619 c -0.54667,-1.25814 -1.33708,-2.13844 -1.75646,-1.95623 -0.41938,0.18226 -0.31521,1.36075 0.23146,2.61887 0.54667,1.25814 1.33708,2.13844 1.75646,1.95619 0.41938,-0.18225 0.31521,-1.36071 -0.23146,-2.61883 z m 7.39881,-12.50186 -1.17054,-0.46138 -0.81665,1.61504 -0.8167,1.61508 2.00971,-0.34565 c 2.20515,-0.37924 2.63695,-1.69669 0.79418,-2.42309 z m -17.50836,8.0112 c -0.145791,-0.33553 -0.855717,-0.84291 -1.577655,-1.12746 -1.928396,-0.7602 -2.620976,-0.19074 -1.869955,1.53772 l 0.662638,1.52502 1.525028,-0.66267 c 0.838756,-0.36445 1.405794,-0.93698 1.259944,-1.27261 z m 3.24683,-5.04477 c -0.75413,-1.73554 -3.831759,-3.59584 -4.002021,-2.419 -0.06986,0.48268 0.462182,1.74095 1.181011,2.79683 l 1.30926,1.91875 1.05487,-0.45836 c 0.58022,-0.25201 0.7852,-1.07904 0.45559,-1.83764 z m 13.72523,-7.13055 c 0.0845,-0.58308 -0.6314,-1.36955 -1.59076,-1.74763 -1.96532,-0.77472 -2.15158,-0.55305 -1.84354,2.19376 l 0.21814,1.94482 1.53139,-0.6654 c 0.84228,-0.36601 1.60042,-1.14248 1.68477,-1.72555 z m -21.386194,8.24653 c -0.222031,-0.52674 -0.532323,-1.8196 -0.689444,-2.87307 l -0.285723,-1.91541 -0.768006,0.3337 c -0.422405,0.18351 -0.386404,1.5956 0.08004,3.13789 0.466317,1.54234 1.122164,2.68505 1.457478,2.53933 0.335167,-0.14547 0.427709,-0.69571 0.20566,-1.22244 z m 13.481674,-3.91344 c -1.17642,-0.46372 -1.11274,0.87399 0.0994,2.08865 l 1.19452,1.19703 -0.32533,-1.5159 c -0.1787,-0.83386 -0.61481,-1.63017 -0.96871,-1.76974 z m -0.16996,-13.67375 c -1.8211,-0.71788 -1.99223,0.85536 -0.19188,1.76605 l 1.57526,0.79656 -0.0924,-1.04507 c -0.0506,-0.57482 -0.6318,-1.25766 -1.291,-1.51754 z m -17.314472,10.87619 c -0.182219,-0.41936 -0.674471,-0.61338 -1.093849,-0.43114 -0.419379,0.18225 -0.613409,0.67442 -0.431181,1.09381 0.182219,0.41936 0.674443,0.61339 1.093821,0.43117 0.419378,-0.18224 0.613436,-0.67444 0.431209,-1.09384 z m 10.542952,-9.50132 c -0.36445,-0.83876 -1.00576,-1.37595 -1.42515,-1.1937 -0.41938,0.18224 -0.4643,1.01758 -0.0999,1.85633 0.36446,0.83877 1.00577,1.37596 1.42516,1.1937 0.41938,-0.18224 0.4643,-1.01757 0.0998,-1.85633 z m -1.13097,-4.21093 c -1.085622,-1.20908 -2.829007,-0.73032 -2.243919,0.61622 0.28852,0.66401 1.067881,0.97126 1.731899,0.68274 0.66402,-0.28845 0.89442,-0.87307 0.51202,-1.29896 z m -13.322491,2.08364 c -0.490398,-0.87077 -1.459624,-0.23975 -1.36016,0.88567 l 0.0926,1.04752 0.782473,-0.7026 c 0.430391,-0.38643 0.648657,-0.94018 0.485103,-1.23056 z m 4.828254,-5.42107 c -0.390912,-0.89965 -2.29625,-1.21586 -2.605134,-0.43234 -0.30885,0.78355 1.29974,1.85254 2.199392,1.46161 0.394625,-0.17157 0.577213,-0.63466 0.405742,-1.02927 z"
       inkscape:connector-curvature="0" />
  </g>
</svg>
